<?xml version="1.0" encoding="UTF-8" standalone="no"?>
<!-- Created with Inkscape (http://www.inkscape.org/) -->

<svg
   xmlns:dc="http://purl.org/dc/elements/1.1/"
   xmlns:cc="http://creativecommons.org/ns#"
   xmlns:rdf="http://www.w3.org/1999/02/22-rdf-syntax-ns#"
   xmlns:svg="http://www.w3.org/2000/svg"
   xmlns="http://www.w3.org/2000/svg"
   xmlns:sodipodi="http://sodipodi.sourceforge.net/DTD/sodipodi-0.dtd"
   xmlns:inkscape="http://www.inkscape.org/namespaces/inkscape"
   version="1.1"
   id="svg4608"
   xml:space="preserve"
   width="800"
   height="800"
   viewBox="0 0 800 800"
   sodipodi:docname="skull-vector-clipart-publicdomainvectors.org.svg"
   inkscape:version="0.92.4 (5da689c313, 2019-01-14)"><metadata
     id="metadata4614"><rdf:RDF><cc:Work
         rdf:about=""><dc:format>image/svg+xml</dc:format><dc:type
           rdf:resource="http://purl.org/dc/dcmitype/StillImage" /><dc:title></dc:title></cc:Work></rdf:RDF></metadata><defs
     id="defs4612"><clipPath
       clipPathUnits="userSpaceOnUse"
       id="clipPath4624"><path
         d="M 0,600 H 600 V 0 H 0 Z"
         id="path4622"
         inkscape:connector-curvature="0" /></clipPath></defs><sodipodi:namedview
     pagecolor="#ffffff"
     bordercolor="#666666"
     borderopacity="1"
     objecttolerance="10"
     gridtolerance="10"
     guidetolerance="10"
     inkscape:pageopacity="0"
     inkscape:pageshadow="2"
     inkscape:window-width="1920"
     inkscape:window-height="1018"
     id="namedview4610"
     showgrid="false"
     inkscape:zoom="0.82932119"
     inkscape:cx="408.47458"
     inkscape:cy="376.27119"
     inkscape:window-x="-8"
     inkscape:window-y="-8"
     inkscape:window-maximized="1"
     inkscape:current-layer="g4616" /><g
     id="g4616"
     inkscape:groupmode="layer"
     inkscape:label="skull-vector-clipart-publicdomainvectors.org"
     transform="matrix(1.3333333,0,0,-1.3333333,0,800)"><g
       id="g4618"><g
         id="g4620"
         clip-path="url(#clipPath4624)"><path
           d="m 400.757,354.36 c 0.584,7.01 22.781,30.959 25.702,32.711 0,0 4.381,-14.894 3.197,-12.851 -1.185,2.046 -6.118,-6.133 -7.287,-13.727 -1.167,-7.593 7.287,-11.682 7.287,-11.682 0,0 2.644,-10.807 1.476,-12.268 -1.169,-1.459 -7.01,-21.904 -11.976,-20.443 -4.965,1.46 -16.94,19.568 -16.94,19.568 0,0 -2.042,11.682 -1.459,18.692 m 13.937,-65.656 c 0.092,0.034 0.163,0.061 0.232,0.086 -0.012,-0.009 -0.009,-0.009 -0.026,-0.019 -0.056,-0.053 -0.337,-0.119 -0.206,-0.067 M 200.707,219.378 c -0.909,-4.078 -3.915,-7.149 -7.065,-8.599 -3.177,-1.541 -6.461,-1.704 -9.203,-1.466 -2.765,0.309 -5.071,1.089 -6.86,1.916 -1.779,0.852 -3.083,1.688 -3.933,2.305 -0.84,0.632 -1.287,0.97 -1.287,0.97 0,0 0.466,-0.311 1.336,-0.894 0.878,-0.569 2.223,-1.328 4.017,-2.069 1.805,-0.715 4.105,-1.347 6.783,-1.499 2.65,-0.083 5.76,0.265 8.582,1.838 2.812,1.504 5.246,4.323 5.834,7.894 0.678,3.545 -0.248,7.445 -1.968,11.068 -1.73,3.635 -4.276,7.067 -7.112,10.258 -1.376,1.563 -3.003,3.159 -4.557,4.683 -1.699,1.578 -3.283,3.334 -4.698,5.263 -2.834,3.815 -4.868,8.618 -4.986,13.657 -0.165,5.037 1.511,9.884 3.887,13.822 0.592,0.995 1.221,1.941 1.884,2.849 0.617,0.857 1.158,1.586 1.689,2.396 0.709,1.057 1.34,2.116 1.93,3.171 0.188,0.335 0.372,0.668 0.544,0.999 0.096,0.184 0.208,0.369 0.301,0.552 0.084,0.172 0.147,0.338 0.229,0.507 -2.45,0.9 -4.965,2.092 -7.553,3.673 -0.137,-0.367 -0.305,-0.734 -0.454,-1.101 -0.143,-0.352 -0.282,-0.702 -0.436,-1.052 -1.365,-3.115 -3.155,-6.212 -5.569,-9.187 -0.777,-0.92 -1.582,-1.84 -2.548,-2.715 -0.473,-0.429 -1,-0.887 -1.522,-1.269 -0.419,-0.321 -0.91,-0.678 -1.464,-1.053 -2.054,-1.405 -4.064,-2.535 -6.096,-3.716 -1.308,-0.758 -2.616,-1.531 -3.904,-2.322 -2.66,-1.626 -5.2,-3.357 -7.196,-5.465 -1.477,-1.558 -2.499,-3.308 -2.866,-5.199 -0.305,-1.896 0.018,-3.98 0.914,-6.022 0.802,-1.917 1.992,-3.687 3.348,-5.408 1.588,-2.008 3.407,-3.951 5.157,-5.962 3.296,-3.928 5.995,-8.101 7.895,-12.578 1.918,-4.435 2.842,-9.189 2.505,-13.65 -0.335,-4.458 -2.014,-8.573 -4.599,-11.481 -2.545,-2.965 -5.856,-4.672 -8.902,-5.286 -3.067,-0.637 -5.824,-0.198 -7.907,0.467 -2.113,0.658 -3.586,1.598 -4.56,2.234 -0.943,0.697 -1.445,1.065 -1.445,1.065 0,0 0.521,-0.341 1.495,-0.986 1.003,-0.584 2.509,-1.436 4.611,-1.971 2.069,-0.543 4.756,-0.821 7.637,-0.066 2.861,0.738 5.864,2.506 8.072,5.366 2.247,2.812 3.581,6.664 3.678,10.759 0.093,4.105 -0.973,8.433 -2.976,12.47 -1.96,4.048 -4.78,7.931 -7.972,11.36 -1.216,1.282 -2.532,2.551 -3.834,3.89 -2.243,2.308 -4.449,4.82 -6.031,7.982 -1.257,2.448 -2.032,5.425 -1.712,8.474 0.376,3.053 1.857,5.791 3.634,7.895 3.6,4.241 7.943,6.901 11.818,9.511 0.484,0.321 0.95,0.633 1.426,0.949 1.435,0.956 2.837,1.899 4.031,2.828 0.362,0.276 0.762,0.596 1.206,0.979 0.359,0.296 0.644,0.597 0.963,0.926 0.624,0.645 1.205,1.408 1.757,2.162 2.14,3.034 3.663,6.403 4.596,9.533 0.021,0.074 0.054,0.153 0.075,0.227 0.097,0.332 0.158,0.649 0.243,0.978 0.108,0.429 0.228,0.858 0.315,1.276 0.478,2.334 0.595,4.485 0.363,6.252 -0.276,2.343 -1.113,3.903 -1.973,4.932 -0.865,0.987 -1.962,1.653 -2.423,1.867 -0.074,0.066 -0.378,0.187 -0.569,0.276 -0.045,0.018 -0.072,0.027 -0.112,0.048 l -1.828,-6.959 c -0.896,0.996 -1.798,2.04 -2.71,3.158 -1.558,1.902 -2.989,3.883 -4.364,5.89 l 7.259,0.357 -0.748,3.367 -1.281,5.757 -8.91,-3.65 -1.105,-0.448 -1.084,-0.445 -5.075,-2.079 -7.686,-0.377 11.534,4.72 1.08,0.444 1.086,0.442 c -1.295,2.402 -2.507,4.849 -3.591,7.35 l 9.135,0.451 -0.748,3.366 -1.28,5.759 -9.377,-3.84 -1.083,-0.444 -1.065,-0.434 -4.649,-1.904 -7.686,-0.377 11.491,4.702 1.046,0.43 1.106,0.449 c -0.853,2.53 -1.613,5.09 -2.284,7.683 l 18.289,1.133 -0.651,3.339 -1.136,5.834 -17.566,-5.878 -1.136,-0.38 -1.072,-0.361 -1.886,-0.63 -10.632,-0.659 11.956,4.002 1.045,0.349 1.165,0.39 c -0.409,2.089 -0.785,4.185 -1.092,6.295 l 19.418,0.806 -0.492,3.395 -0.847,5.855 -18.749,-4.709 -1.188,-0.298 -1.072,-0.27 -7.066,-1.776 -14.517,-0.601 21.305,5.352 1.043,0.261 1.223,0.308 c -0.28,3.257 -0.453,6.522 -0.525,9.787 l 26.622,0.671 -0.268,2.414 -0.761,6.876 -25.631,-5.085 -1.268,-0.25 -1.041,-0.206 -7.786,-1.544 -16.296,-0.093 24.09,3.343 1.045,0.144 1.265,0.176 c 0.05,3.134 0.192,6.255 0.406,9.357 l 20.074,-0.924 -0.182,3.579 -0.289,5.756 -19.134,-2.825 -1.304,-0.19 -1.051,-0.155 -8.192,-1.207 -16.694,0.767 25.234,3.719 1.054,0.157 1.315,0.194 c 0.33,2.833 0.717,5.636 1.163,8.403 l 25.491,-3.981 0.266,3.723 0.409,5.603 -25.278,-0.255 -1.294,-0.013 -1.072,-0.013 -6.439,-0.064 -20.883,3.264 27.988,0.278 1.089,0.015 1.285,0.011 c 0.581,2.822 1.22,5.588 1.897,8.298 l 28.962,-7.177 0.613,3.773 0.885,5.449 -29.31,2.332 -1.256,0.098 -1.101,0.088 -2.014,0.159 -21.565,5.344 24.585,-1.953 1.116,-0.089 1.254,-0.101 c 1.261,4.253 2.621,8.301 4.049,12.098 l 24.119,-11.931 1.434,3.65 1.985,5.049 -25.787,7.693 -1.131,0.34 -1.115,0.332 -2.695,0.804 -20.465,10.122 24.675,-7.363 1.128,-0.337 1.127,-0.335 c 0.04,0.087 0.079,0.185 0.119,0.274 1.201,2.684 2.788,5.319 4.653,7.912 l 13.204,-9.097 4.484,8.201 -0.117,0.051 -13.677,5.744 -1.129,0.475 -1.094,0.461 -8.503,3.573 -15.752,10.847 27.08,-11.379 1.094,-0.457 1.16,-0.49 c 1.516,1.521 3.165,3.012 4.878,4.488 l 18.402,-17.985 5.995,7.167 -0.725,0.518 -19.377,13.795 -1.039,0.743 -0.874,0.62 -7.445,5.302 -17.884,17.479 28.576,-20.348 0.884,-0.631 1.043,-0.743 c 3.45,2.476 7.144,4.867 11.063,7.154 l 14.353,-16.054 6.448,6.761 -0.88,0.718 -14.371,11.674 -0.984,0.796 -0.894,0.73 -10.679,8.673 -16.073,17.978 30.414,-24.708 0.914,-0.74 0.986,-0.801 c 1.958,0.992 3.959,1.958 5.987,2.904 l 6.799,-12.861 4.519,2.905 3.343,2.15 -8.232,10.677 -0.708,0.919 -0.706,0.917 -8.722,11.31 -13.383,23.138 26.592,-32.574 0.749,-0.919 0.739,-0.905 c 1.614,0.649 3.244,1.281 4.882,1.898 l 5.393,-16.258 8.541,3.796 -0.579,1.021 -7.669,13.503 -0.549,0.966 -0.586,1.03 -8.773,15.447 -3.634,12.995 13.968,-27.887 0.536,-1.071 0.485,-0.972 c 2.976,1.016 5.982,1.972 9.003,2.878 l 2.841,-14.771 1.39,0.382 7.617,2.102 -5.172,14.2 -0.368,1.011 -0.416,1.142 -9.519,26.134 -2.844,16.144 13.932,-41.847 0.389,-1.164 0.335,-1.008 c 2.235,0.592 4.47,1.14 6.706,1.668 l 3.114,-17.634 9.053,2.322 -0.947,2.794 -4.739,13.952 -0.353,1.035 -0.392,1.16 -8.326,24.514 -3.193,18.087 14.271,-42.027 0.401,-1.175 0.347,-1.025 c 2.461,0.482 4.908,0.907 7.344,1.301 l 0.739,-15.607 1.751,0.231 7.515,0.983 -3.322,15.37 -0.24,1.098 -0.255,1.177 -5.702,26.375 -0.651,14.662 8.29,-40.777 0.24,-1.183 0.224,-1.1 c 1.365,0.165 2.716,0.305 4.065,0.439 l -0.559,-9.187 9.335,0.448 -0.532,3.38 -0.94,5.957 -0.178,1.136 -0.186,1.182 -3.756,23.868 0.644,10.595 5.41,-34.351 0.183,-1.166 0.181,-1.156 c 2.422,0.113 4.821,0.191 7.158,0.191 0.916,0 1.798,-0.028 2.691,-0.047 l -1.712,-18.713 9.346,-0.113 -0.236,3.514 -1.009,15.022 -0.08,1.178 -0.078,1.178 -1.944,28.944 1.153,12.586 2.8,-41.676 0.078,-1.179 0.079,-1.178 c 1.33,-0.096 2.706,-0.194 4.174,-0.297 1.044,-0.073 2.136,-0.15 3.252,-0.229 l -1.753,-10.674 9.325,-0.632 -0.237,8.658 -0.059,2.108 -0.033,1.176 -0.03,1.177 -0.771,27.978 1.54,11.58 3.167,-39.87 0.095,-1.182 0.093,-1.185 c 1.606,-0.132 3.242,-0.275 4.908,-0.424 l -1.455,-10.874 9.34,-0.377 -0.516,9.866 -0.036,0.671 -0.063,1.189 -0.061,1.194 -1.597,30.495 1.396,10.497 3.28,-41.32 0.097,-1.2 0.092,-1.198 c 3.07,-0.343 6.166,-0.726 9.258,-1.151 l -3.238,-13.688 9.264,-1.241 0.125,3.708 0.348,10.255 0.039,1.196 0.042,1.197 0.886,26.174 1.922,8.116 -1.171,-34.55 -0.041,-1.21 -0.042,-1.197 c 3.951,-0.66 7.821,-1.409 11.52,-2.256 l -5.197,-13.019 4.346,-1.277 4.619,-1.359 2.734,14.006 0.227,1.165 0.227,1.172 5.256,26.919 2.897,9.288 -5.327,-37.039 -0.173,-1.193 -0.169,-1.18 c 6.949,-2.165 12.803,-4.826 16.719,-8.117 14.585,-12.264 40.323,-47.175 44.446,-100.323 -2.577,-5.296 -13.316,-28.21 -9.08,-33.658 5.116,-6.575 18.865,-25.264 20.406,-28.48 -0.743,-1.585 -3.757,-5.915 -6.934,-10.479 -12.742,-18.306 -23.88,-35.218 -20.255,-40.97 1.69,-2.69 3.708,-4.051 5.997,-4.051 3.747,0 6.616,3.814 6.737,3.977 l 0.177,0.239 0.04,0.297 c 0.393,2.84 1.121,6.186 1.687,7.314 0.919,-0.463 2.717,-1.763 4.237,-3.009 l 1.259,-9.386 c -1.539,-0.446 -4.224,-1.557 -5.319,-4.071 -1.014,-2.336 -0.391,-5.192 1.856,-8.488 4.876,-7.162 4.896,-13.736 3.765,-16.195 -0.281,-0.609 -0.544,-0.765 -0.593,-0.769 -0.622,-0.068 -3.757,-0.258 -8.373,-0.258 -13.654,0 -47.951,1.68 -72.41,17.198 -1.166,3.137 -3.732,7.473 -7.219,11.117 -0.038,0.453 -0.07,0.903 -0.025,1.339 0.073,2.089 2.998,1.412 5.307,0.431 2.393,-1.009 4.82,-2.389 7.172,-3.886 2.377,-1.502 4.752,-3.207 7.386,-4.706 2.583,-1.514 5.352,-2.822 8.321,-3.695 2.948,-0.857 6.197,-1.293 9.382,-0.605 3.176,0.669 6.031,2.427 8.009,4.502 2.027,2.057 3.449,4.279 4.571,6.311 2.215,4.075 3.55,7.531 4.666,9.31 0.134,0.203 0.26,0.397 0.376,0.58 0.108,0.135 0.208,0.262 0.303,0.38 0.032,0.031 0.074,0.073 0.115,0.111 0.019,0.006 0.045,0.017 0.061,0.021 0.165,0.063 0.248,0.098 0.248,0.098 l -2.699,6.466 c 0,0 -0.083,-0.038 -0.24,-0.112 -0.081,-0.039 -0.181,-0.083 -0.299,-0.139 -0.108,-0.045 -0.603,-0.335 -0.938,-0.582 -0.904,-0.65 -1.15,-1.073 -1.671,-1.699 -0.189,-0.288 -0.39,-0.593 -0.608,-0.921 -0.166,-0.31 -0.343,-0.637 -0.53,-0.979 -1.353,-2.678 -2.364,-6.131 -4.052,-9.847 -0.84,-1.849 -1.878,-3.714 -3.242,-5.329 -1.347,-1.639 -3.089,-2.871 -5.208,-3.52 -2.124,-0.647 -4.656,-0.557 -7.219,-0.017 -2.573,0.545 -5.19,1.53 -7.715,2.768 -2.515,1.186 -4.998,2.69 -7.561,4.055 -2.586,1.383 -5.17,2.612 -7.872,3.522 -1.358,0.429 -2.735,0.822 -4.299,0.757 -0.756,-0.006 -1.646,-0.254 -2.366,-0.828 -0.667,-0.634 -0.95,-1.47 -1.003,-2.185 -3.373,3.048 -7.437,5.306 -11.854,5.398 -4.942,0.101 -7.703,0.815 -8.954,2.316 -0.974,1.17 -1.204,3.097 -0.724,6.062 0.246,1.509 0.126,2.418 -0.401,3.037 -0.342,0.402 -0.837,0.625 -1.397,0.625 -0.979,0 -2.086,-0.673 -3.492,-1.527 -1.554,-0.941 -3.487,-2.115 -5.009,-2.115 -0.743,0 -1.323,0.288 -1.826,0.902 -2.138,2.627 -18.743,20.013 -29.401,20.013 -2.381,0 -4.316,-0.893 -5.694,-2.613 -0.437,1.133 -0.473,2.096 -0.087,2.805 0.713,1.309 2.955,2.031 6.309,2.031 5.54,0 16.698,-1.941 38.413,-11.196 3.085,-1.313 5.82,-1.952 8.355,-1.952 5.561,0 8.998,3.061 12.323,6.02 3.108,2.769 6.044,5.383 10.63,5.383 3.746,0 8.258,-1.724 13.795,-5.269 2.742,-1.759 4.921,-2.613 6.656,-2.613 1.377,0 2.495,0.55 3.234,1.594 2.578,3.642 -0.501,12.668 -0.812,13.491 -0.084,0.506 -8.327,50.276 14.179,57.101 l 5.655,1.714 -5.879,0.567 c -20.342,1.894 -22.033,-36.867 -22.801,-55.257 -0.131,-3.183 -0.257,-6.2 -0.452,-7.077 -0.271,-0.188 -0.501,-0.255 -0.821,-0.255 -1.581,0 -5.164,1.7 -12.6,5.513 -1.934,0.992 -3.646,1.473 -5.239,1.473 -4.058,0 -6.351,-3.054 -8.781,-6.29 -2.26,-3.007 -4.595,-6.116 -8.62,-7.348 -0.542,-0.165 -1.186,-0.248 -1.915,-0.248 -3.828,-0.003 -9.505,2.204 -16.078,4.757 -9.069,3.522 -19.349,7.517 -29.126,7.517 -5.417,0 -10.009,-1.213 -14.041,-3.704 -12.746,-7.873 -6.384,-22.088 -1.741,-32.469 1.937,-4.326 3.938,-8.799 3.114,-10.281 -0.066,-0.119 -0.266,-0.478 -1.208,-0.606 -9.54,-1.288 -25.044,-14.79 -31.665,-20.555 -1.047,-0.916 -1.807,-1.577 -2.191,-1.876 -0.152,-0.12 -0.658,-0.394 -2.058,-0.394 -3.147,0 -7.837,1.366 -9.439,1.864 -8.647,26.789 -19.937,27.781 -32.992,28.923 -3.21,0.281 -6.541,0.586 -10.004,1.261 -0.187,-0.365 -0.38,-0.725 -0.577,-1.081 -0.161,-0.288 -0.3,-0.586 -0.466,-0.872 -0.037,-0.06 -0.08,-0.12 -0.117,-0.181 -1.036,-1.744 -2.199,-3.432 -3.465,-5.068 -0.64,-0.838 -1.37,-1.706 -2.017,-2.475 -0.613,-0.709 -1.199,-1.457 -1.744,-2.223 -2.19,-3.06 -3.732,-6.652 -3.92,-10.472 -0.222,-3.81 1.011,-7.781 3.219,-11.325 1.097,-1.772 2.389,-3.471 3.837,-5.049 1.529,-1.698 3.001,-3.284 4.441,-5.11 2.817,-3.544 5.296,-7.293 6.958,-11.344 0.813,-2.028 1.43,-4.11 1.735,-6.219 0.266,-2.117 0.22,-4.25 -0.265,-6.252 m 234.2,21.684 c 0.802,1.45 1.886,2.157 3.311,2.157 1.415,0 2.792,-0.678 3.443,-1.051 1.216,-6.784 1.938,-14.583 1.096,-15.716 -0.362,-0.479 -1.44,-0.765 -2.888,-0.765 -2.143,0 -4.472,0.59 -5.258,0.931 -0.392,1.531 -0.167,8.467 0.296,14.444 m -21.491,-15.209 c -1.83,-1.444 -3.933,-2.965 -4.855,-3.462 -1.369,1.197 -5.707,5.201 -8.676,7.957 0.035,3.09 0.4,6.65 0.93,7.359 0.956,1.27 3.578,5.54 4.66,7.309 l 8.769,-2.601 z m -73.847,-7.597 0.032,0.028 -0.032,-0.461 z m 27.539,-51.982 c -0.744,0 -1.836,2.101 -2.405,4.109 2.066,2.596 4.541,5.398 5.458,6.042 0.215,-0.174 0.519,-0.61 0.741,-1.065 -0.726,-3.986 -2.268,-8.48 -3.588,-9.037 -0.077,-0.034 -0.146,-0.049 -0.206,-0.049 m -8.882,7.313 c -3.13,1.771 -3.698,2.649 -3.775,2.649 -0.002,0 -0.005,0 -0.006,-10e-4 0.33,1.623 1.651,6.479 2.41,7.577 h 0.009 c 1.364,0 4.576,-0.489 5.399,-0.653 0.659,-0.691 2.278,-3.227 2.299,-3.881 -0.387,-1.052 -4.764,-4.64 -6.336,-5.691 m -0.422,68.91 c -1.647,0.099 -7.513,6.116 -8.514,7.808 0.727,2.049 7.526,11.719 8.381,12.625 0.268,0.171 0.514,0.252 0.753,0.252 2.385,0 5.002,-7.238 5.247,-8.899 -0.048,-1.507 -4.286,-10.866 -5.867,-11.786 m 0.041,-1.156 v 1.151 h 0.003 z M 328.87,215.287 c 1.341,0.078 4.481,0.364 6.046,0.511 0.416,-1.071 0.981,-2.733 1.051,-3.827 -0.026,-0.816 -2.568,-2.907 -3.997,-3.817 -1.756,2.259 -2.907,3.7 -3.443,4.304 -0.057,0.632 0.113,2.146 0.343,2.829 m 8.846,-19.657 c -1.697,2.186 -3.551,4.538 -4.291,5.363 -0.099,0.779 0.15,2.906 0.468,3.701 1.536,0.083 5.688,0.463 7.554,0.636 0.51,-1.284 1.249,-3.417 1.338,-4.817 0.066,-1.051 -3.35,-3.827 -5.069,-4.883 m 9.939,-11.916 c -0.686,-0.255 -3.241,2.031 -5.579,5.379 0.061,0.144 0.129,0.31 0.206,0.495 1.649,3.983 2.488,4.943 2.826,5.049 1.398,-0.374 3.601,-0.235 6.129,-0.029 0.379,0.029 0.809,0.064 1.154,0.087 0.282,-0.901 0.853,-2.622 2.017,-5.991 -2.469,-2.021 -5.864,-4.646 -6.753,-4.99 m 46.251,49.431 c -0.521,-1.034 -0.906,-1.19 -0.975,-1.21 -0.274,-0.081 -0.632,-0.122 -1.065,-0.122 -3.391,0 -9.513,2.444 -11.364,3.482 -0.067,1.593 2.525,7.958 5.209,13.393 0.133,0.065 0.626,0.261 1.937,0.261 3.563,0 7.736,-1.264 8.214,-1.984 0.498,-1.368 -0.1,-10.151 -1.956,-13.82 m -18.594,2.192 c -2.219,0 -9.356,4.423 -10.574,5.813 -0.467,0.535 0.286,2.082 0.837,3.216 0.52,1.066 1.01,2.076 1.007,2.945 0.187,0.974 3.601,4.918 6.689,8.01 0.218,0.229 0.405,0.258 0.559,0.258 1.926,0 5.469,-4.737 5.81,-5.565 -0.018,-1.656 -3.204,-12.921 -4.312,-14.677 z m -97.152,-31.94 c 2.214,-6.061 5.111,-14.101 7.147,-19.882 -2.801,3.077 -6.515,6.548 -10.53,10.299 -10.27,9.592 -23.048,21.533 -22.719,30.115 0.091,2.432 1.222,4.482 3.452,6.266 17.889,14.311 43.433,56.989 37.833,74.087 1.208,0.377 3.24,0.896 5.176,0.896 3.432,0 4.073,-1.628 4.282,-2.161 0.53,-1.35 0.764,-4.228 1.037,-7.557 0.09,-1.127 0.189,-2.322 0.308,-3.559 -0.101,-1.349 -0.228,-3.316 -0.333,-5.713 -0.197,-4.574 -0.295,-10.681 0.06,-16.777 0.354,-6.09 1.23,-12.192 2.766,-16.535 0.377,-1.085 0.788,-2.056 1.217,-2.886 0.428,-0.824 0.844,-1.528 1.262,-2.047 0.778,-1.088 1.429,-1.521 1.389,-1.551 0.04,0.03 -0.565,0.524 -1.223,1.662 -0.356,0.549 -0.697,1.274 -1.035,2.115 -0.339,0.845 -0.646,1.827 -0.91,2.915 -1.08,4.354 -1.361,10.377 -1.128,16.353 0.112,2.939 0.333,5.873 0.602,8.62 1.596,-4.473 4.12,-8.326 8.25,-10.325 1.824,-0.882 3.864,-1.33 6.059,-1.33 10.339,0 21.575,9.786 24.274,12.284 3.133,-1.481 9.364,-4.834 11.313,-7.64 -8.635,-6.802 -21.154,-21.7 -30.488,-40.625 -0.326,-0.871 -0.589,-1.759 -0.821,-2.655 -0.652,-1.295 -1.493,-2.968 -2.491,-4.951 -1.176,-2.363 -2.591,-5.17 -3.665,-8.435 -0.536,-1.679 -0.939,-3.325 -1.299,-5.014 -0.374,-1.723 -0.711,-3.456 -0.968,-5.211 -0.533,-3.503 -0.818,-7.045 -0.802,-10.356 0.009,-3.317 0.327,-6.402 0.831,-8.993 0.5,-2.593 1.157,-4.69 1.67,-6.132 0.545,-1.43 0.887,-2.231 0.887,-2.231 0,0 -0.276,0.831 -0.694,2.293 -0.387,1.471 -0.858,3.596 -1.132,6.177 -0.277,2.58 -0.331,5.614 -0.065,8.83 0.257,3.218 0.825,6.618 1.629,9.957 0.392,1.671 0.861,3.332 1.35,4.929 0.498,1.634 1.041,3.231 1.62,4.629 0.706,1.668 1.521,3.197 2.345,4.645 1.538,-19.798 19.917,-42.924 40.37,-55.199 -0.769,-1.556 -3.142,-4.894 -9.609,-5.838 -2.885,-0.424 -5.027,-2.559 -6.916,-4.441 -1.104,-1.1 -2.145,-2.139 -3.134,-2.636 -2.883,-1.439 -4.399,-5.423 -6.158,-10.035 -2.842,-7.464 -6.065,-15.924 -15.711,-15.927 h -0.005 c -0.443,0 -0.9,0.018 -1.372,0.056 -10.943,9.513 -19.108,30.046 -26.321,48.181 -5.227,13.145 -10.167,25.559 -15.584,32.456 l -4.528,5.765 z m 56.788,25.773 c 0.033,0.352 0.152,0.489 0.249,0.569 2.181,1.772 24.458,-2.969 26.89,-3.949 l 0.051,0.068 c 1.335,-0.339 1.467,-0.094 1.679,0.286 l 0.49,0.905 -0.819,0.614 c -0.154,0.115 -0.686,0.314 -1.508,0.561 -3.441,1.271 -14.206,5.488 -22.466,8.748 1.019,0.554 2.483,1.034 4.204,0.681 18.686,-3.841 55.442,-16.978 59.915,-31.327 1.79,-5.749 0.443,-13.944 -0.862,-21.871 -2.047,-12.436 -4.164,-25.297 5.302,-30.597 1.012,-0.567 1.828,-1.122 2.448,-1.608 -1.664,0.596 -4.627,1.911 -9.774,4.813 -6.618,3.736 -7.366,10.552 -8.234,18.444 -0.827,7.539 -1.768,16.08 -8.648,22.406 -10.097,9.281 -26.753,19.597 -43.485,21.014 l 0.089,0.072 c -2.254,2.726 -5.743,7.897 -5.521,10.171 m 85.734,12.553 c 0.488,0.869 1.262,1.275 2.424,1.275 1.645,0 3.472,-0.817 4.321,-1.248 0.761,-5.604 1.475,-13.728 0.782,-15.342 -0.193,-0.454 -1.589,-1.216 -5.595,-1.216 -0.869,0 -1.669,0.038 -2.266,0.077 z M 297.404,579.917 c -134.204,0 -243,-108.793 -243,-242.999 0,-134.205 108.796,-243 243,-243 134.207,0 243,108.795 243,243 0,134.206 -108.793,242.999 -243,242.999"
           style="fill:#000000;fill-opacity:1;fill-rule:nonzero;stroke:none"
           id="path4626"
           inkscape:connector-curvature="0" /></g></g></g></svg>